<?xml version="1.0" encoding="utf-8"?>
<!-- Generator: Adobe Illustrator 16.0.3, SVG Export Plug-In . SVG Version: 6.00 Build 0)  -->
<!DOCTYPE svg PUBLIC "-//W3C//DTD SVG 1.1//EN" "http://www.w3.org/Graphics/SVG/1.1/DTD/svg11.dtd">
<svg version="1.1" id="University_of_Helsinki_Logo"
	 xmlns="http://www.w3.org/2000/svg" xmlns:xlink="http://www.w3.org/1999/xlink" x="0px" y="0px" width="610px" height="593.12px"
	 viewBox="0 0 610 593.12" enable-background="new 0 0 610 593.12" xml:space="preserve">
<path fill="#333333" d="M562.609,540.328h-33.287v8.994h11.81v37.988h9.664v-37.988h11.813V540.328z M500.969,573.818l-5.769,7.184
	c5.166,4.832,11.407,6.912,17.38,6.912c9.13,0,15.773-5.371,15.773-14.096v-0.133c0-7.316-4.43-10.807-12.616-14.029
	c-7.318-3.02-8.925-4.297-8.925-6.977v-0.072c0-2.414,2.077-4.094,5.435-4.094c3.623,0,7.045,1.949,9.998,4.363l5.438-7.379
	c-4.294-3.896-9.664-5.775-15.167-5.775c-9.062,0-15.371,5.57-15.371,13.76v0.133c0,8.055,5.169,11.211,13.492,14.432
	c6.708,2.551,8.053,4.025,8.053,6.379v0.064c0,2.752-2.285,4.627-6.041,4.627C507.949,579.117,504.125,576.57,500.969,573.818
	 M492.538,540.328h-9.729v46.982h9.729V540.328z M462.42,549.117c5.165,0,7.984,2.688,7.984,7.588v0.064
	c0,4.365-2.819,7.516-7.853,7.516h-5.435v-15.168H462.42z M463.022,540.328h-15.641v46.982h9.735v-14.299h5.503
	c9.865-0.201,17.585-5.635,17.585-16.443v-0.133C480.205,546.434,473.558,540.328,463.022,540.328 M410.712,563.553
	c0-9.266,4.632-15.039,11.207-15.039c6.511,0,11.21,5.842,11.21,15.104v0.469c0,9.264-4.631,15.031-11.142,15.031
	s-11.275-5.836-11.275-15.096V563.553z M400.711,563.48v0.805c0,14.029,8.725,23.83,21.208,23.83
	c12.419,0,21.276-9.934,21.276-23.961v-0.807c0-14.025-8.725-23.826-21.208-23.826C409.567,539.521,400.711,549.387,400.711,563.48
	 M396.37,540.328h-9.732v46.982h9.732V540.328z M365.114,540.328h-9.732v46.982h28.727v-8.928h-18.994V540.328z M324.28,540.328
	h-11.009l15.303,28.459v18.523h9.736v-18.66l15.3-28.322h-10.74l-9.331,18.453L324.28,540.328z M272.867,540.328h-8.925v46.982
	h9.532v-28.393l18.591,28.393h8.32v-46.982h-9.529v27.383L272.867,540.328z M257.759,540.328h-9.73v46.982h9.73V540.328z
	 M204.127,563.553v0.602c0,14.697,9.128,23.824,21.746,23.824c6.979,0,12.416-2.615,16.71-5.836v-21.746h-17.786v8.455h8.527v8.326
	c-1.745,1.273-4.229,1.939-6.981,1.939c-6.913,0-12.217-5.432-12.217-15.096v-0.541c0-8.656,5.102-14.762,11.813-14.762
	c4.497,0,7.249,1.744,9.73,4.025l5.776-7.588c-4.299-3.619-8.794-5.498-15.37-5.498
	C213.321,539.658,204.127,549.654,204.127,563.553 M172.422,540.328h-8.927v46.982h9.53v-28.393l18.589,28.393h8.324v-46.982h-9.531
	v27.383L172.422,540.328z M157.313,540.328h-9.73v46.982h9.73V540.328z M116.299,573.818l-5.774,7.184
	c5.168,4.832,11.41,6.912,17.382,6.912c9.128,0,15.773-5.371,15.773-14.096v-0.133c0-7.316-4.43-10.807-12.618-14.029
	c-7.313-3.02-8.925-4.297-8.925-6.977v-0.072c0-2.414,2.083-4.094,5.437-4.094c3.625,0,7.049,1.949,9.998,4.363l5.437-7.379
	c-4.294-3.896-9.665-5.775-15.167-5.775c-9.058,0-15.37,5.57-15.37,13.76v0.133c0,8.055,5.169,11.211,13.494,14.432
	c6.71,2.551,8.052,4.025,8.052,6.379v0.064c0,2.752-2.282,4.627-6.039,4.627C123.28,579.117,119.453,576.57,116.299,573.818
	 M90.854,540.328h-9.73v46.982h28.726v-8.928H90.854V540.328z M76.297,540.328h-30.27v46.982h30.537v-8.795H55.692v-10.469h18.122
	v-8.793H55.692v-10.137h20.605V540.328z M30.17,587.311h9.73v-46.982h-9.73v18.859H14.73v-18.859H5v46.982h9.73V568.18h15.44
	V587.311z M594.931,564.086c0,9.264-4.628,15.031-11.143,15.031c-6.507,0-11.271-5.836-11.271-15.096v-0.469
	c0-9.266,4.627-15.039,11.206-15.039c6.511,0,11.207,5.842,11.207,15.104V564.086z M605,564.154v-0.807
	c0-14.025-8.725-23.826-21.212-23.826c-12.415,0-21.272,9.865-21.272,23.959v0.805c0,14.029,8.728,23.83,21.208,23.83
	C596.14,588.115,605,578.182,605,564.154"/>
<path fill="#333333" d="M564.162,327.674c-18.7-41.139-60.7-47.137-86.984-64.281c-12.588-8.207-17.682-24.684-19.684-38.451
	c-12.387,1.287-33.007,1.473-42.857-23.569c-7.745-19.69-4.534-52.327-30.46-79.976c-23.572-25.143-52.568-33.43-79.179-31.561
	c32.609,21.8,19.752,54.67-3.922,54.67c-32.966,0-42.178-39.697-90.425-39.697c-11.038,0-20.758,3.448-26.826,7.459
	c27.018,3.414,33.482,25.563,41.932,45.619c6.71,15.936,18.711,25.223,36.282,30.08c-3.175,1.826-10.756,4.067-20.564,4.067
	c-21.309,0-36.149-11.214-51.41-26.937c-13.425-13.833-28.406-26.944-53.517-26.944c-12.358,0-21.816,3.917-25.093,6.12
	c13.786,2.174,34.151,10.389,34.151,24.971c0,12.473-13.793,17.244-25.093,5.309c-12.581-13.287-30.246-23.334-50.457-23.334
	c-9.983,0-19.972,3.178-24.218,7.314c23.958,2.766,38.147,18.145,52.977,52.441c8.371,19.365,20.292,37.668,50.31,38.008
	c13.662,0.162,33.057-6.332,44.445,4.596c10.774,10.346,7.16,23.912,12.089,34.912c6.201,13.824,19.058,20.949,44.203,22.258
	c-20.858,17.453-70.712,6.982-87.691-10.852c2.229,44.645,37.442,84.686,107.346,65.855c12.152-3.271,20.817-1.42,25.495,10.873
	c6.416,16.883,21.621,19.68,35.988,17.898c32.859-4.072,52.356,2.547,71.269,25.135c4.133-37.375-22.589-59.34-39.378-69.84
	c-15.988-10.002-17.549-20.402-17.75-28.455c11.573,13.236,26.65,18.844,42.344,21.057c27.12,3.818,46.549,11.377,56.834,25.922
	c3.002-41.092-40.143-50.379-45.43-67.666c13.574,8.857,23.583,12.07,37.717,11.002c18.854-1.428,41.784-16.232,58.695,12.742
	C516.889,310.393,545.175,315.391,564.162,327.674 M280.703,490.928h48.592v-48.59h-48.592V490.928z M280.703,53.594h48.592V5
	h-48.592V53.594z M329.298,272.26h-48.591v-48.592h48.591V272.26z"/>
</svg>
