<svg width="511" height="511" xmlns="http://www.w3.org/2000/svg" xmlns:xlink="http://www.w3.org/1999/xlink" xml:space="preserve" overflow="hidden"><defs><clipPath id="clip0"><rect x="1058" y="685" width="511" height="511"/></clipPath><clipPath id="clip1"><rect x="1172" y="797" width="286" height="286"/></clipPath><clipPath id="clip2"><rect x="1172" y="797" width="286" height="286"/></clipPath><clipPath id="clip3"><rect x="1172" y="797" width="286" height="286"/></clipPath></defs><g clip-path="url(#clip0)" transform="translate(-1058 -685)"><g clip-path="url(#clip1)"><g clip-path="url(#clip2)"><g clip-path="url(#clip3)"><path d="M1389.95 885.602C1385.11 844.221 1347.64 814.602 1306.25 819.444 1268.34 823.882 1239.72 855.941 1239.59 894.113L1275.09 894.113C1275.09 872.064 1292.96 854.19 1315.01 854.189 1337.06 854.188 1354.93 872.061 1354.93 894.11 1354.93 907.857 1347.86 920.638 1336.21 927.939 1312.17 942.647 1297.44 968.731 1297.25 996.912L1332.75 996.912C1332.98 980.946 1341.43 966.229 1355.11 957.99 1379.73 942.62 1393.3 914.436 1389.95 885.602Z"/><path d="M1330.91 1024.24 1330.91 1024.24C1322.45 1015.76 1308.72 1015.74 1300.25 1024.2 1300.24 1024.21 1300.22 1024.22 1300.21 1024.24 1298.23 1026.23 1296.65 1028.58 1295.56 1031.18 1294.43 1033.85 1293.86 1036.73 1293.87 1039.64 1293.85 1042.54 1294.43 1045.4 1295.57 1048.07 1297.78 1053.27 1301.94 1057.4 1307.15 1059.59 1309.83 1060.72 1312.71 1061.3 1315.62 1061.29 1318.51 1061.31 1321.38 1060.73 1324.04 1059.59 1329.22 1057.38 1333.34 1053.25 1335.55 1048.07 1336.69 1045.41 1337.27 1042.54 1337.26 1039.65 1337.27 1036.74 1336.69 1033.86 1335.56 1031.18 1334.47 1028.59 1332.9 1026.23 1330.91 1024.24Z"/></g></g></g><path d="M1510.29 743.552 1116.39 743.552 1116.39 1137.45 1510.29 1137.45ZM1499.64 1126.8 1127.04 1126.8 1127.04 754.198 1499.64 754.198Z"/></g></svg>